PathFileType	4	(X/Y/Z)	/Users/itak/Documents/Research/Walk-IL/dataset/trc/00339_00011.trc
DataRate	CameraRate	NumFrames	NumMarkers	Units	OrigDataRate	OrigDataStartFrame	OrigNumFrames
100.000000	100.000000	4	53	mm	100.000000	521	695
Frame#	Time	RPSI			LPSI			L3			STRN			T10			C7			CLAV			RBAK			LBAK			LSHO			LUPA			LAEL			LAOL			LWTS			LWPS			LFRA			LIFD			LHPS			LHTS			RSHO			RUPA			RAEL			RAOL			RWTS			RWPS			RFRA			RIFD			RHTS			RHPS			RBHD			LFHD			RFHD			LBHD			LHIP			RHIP			RASI			LASI			LKNE			LTHI			LANK			LTIP			LTOE			LMT1			LMT5			LHEE			RKNE			RTHI			RANK			RTIP			RTOE			RMT5			RHEE			RMT1			
		X1	Y1	Z1	X2	Y2	Z2	X3	Y3	Z3	X4	Y4	Z4	X5	Y5	Z5	X6	Y6	Z6	X7	Y7	Z7	X8	Y8	Z8	X9	Y9	Z9	X10	Y10	Z10	X11	Y11	Z11	X12	Y12	Z12	X13	Y13	Z13	X14	Y14	Z14	X15	Y15	Z15	X16	Y16	Z16	X17	Y17	Z17	X18	Y18	Z18	X19	Y19	Z19	X20	Y20	Z20	X21	Y21	Z21	X22	Y22	Z22	X23	Y23	Z23	X24	Y24	Z24	X25	Y25	Z25	X26	Y26	Z26	X27	Y27	Z27	X28	Y28	Z28	X29	Y29	Z29	X30	Y30	Z30	X31	Y31	Z31	X32	Y32	Z32	X33	Y33	Z33	X34	Y34	Z34	X35	Y35	Z35	X36	Y36	Z36	X37	Y37	Z37	X38	Y38	Z38	X39	Y39	Z39	X40	Y40	Z40	X41	Y41	Z41	X42	Y42	Z42	X43	Y43	Z43	X44	Y44	Z44	X45	Y45	Z45	X46	Y46	Z46	X47	Y47	Z47	X48	Y48	Z48	X49	Y49	Z49	X50	Y50	Z50	X51	Y51	Z51	X52	Y52	Z52	X53	Y53	Z53	

522	5.21	-732.131591796875	964.6373291015625	-48.22754287719727	-603.34130859375	954.6375122070312	-45.3226203918457	-675.3641967773438	1021.823974609375	-51.07497406005859	-639.7492065429688	1199.250122070312	186.1584930419922	-670.8572998046875	1141.216430664062	-59.55179595947266	-636.8748168945312	1386.082885742188	-8.268675804138184	-630.1109619140625	1325.063720703125	144.6123504638672	-719.8118286132812	1253.51416015625	-54.0809440612793	-541.4986572265625	1345.55029296875	-32.68363189697266	-474.8345642089844	1353.10302734375	45.60012054443359	-421.12451171875	1235.235595703125	1.461506366729736	-420.9503784179688	1033.698364257812	-23.02260208129883	-493.9661560058594	1032.313110351562	-66.84186553955078	-448.1737670898438	776.5723266601562	35.14738464355469	-407.3215637207031	773.8262939453125	-21.62364959716797	-415.2555847167969	928.1618041992188	-31.02459716796875	-466.8312377929688	617.0507202148438	7.207648277282715	-419.4991455078125	705.44775390625	-36.70365524291992	-435.1854248046875	696.74560546875	24.48142242431641	-791.1343994140625	1383.064697265625	62.17283630371094	-862.675048828125	1328.364135742188	59.49515914916992	-968.4609375	1090.240478515625	125.2126846313477	-893.0328979492188	1048.056396484375	84.31660461425781	-968.8303833007812	899.180908203125	295.7452392578125	-1040.737548828125	893.0836181640625	269.294921875	-992.554443359375	1036.098388671875	167.7351531982422	-1013.49365234375	745.4876098632812	360.2199096679688	-1004.25634765625	818.005126953125	354.773193359375	-1056.073608398438	817.6277465820312	306.8318786621094	-702.4867553710938	1597.3466796875	90.54244995117188	-544.8609008789062	1569.988647460938	222.8495788574219	-642.465087890625	1578.878540039062	240.5865631103516	-568.5817260742188	1587.224731445312	37.74306106567383	-505.024658203125	896.9498291015625	46.9278564453125	-846.964111328125	912.8668212890625	23.74482727050781	-810.603271484375	937.5606689453125	131.6805419921875	-572.2159423828125	927.0963134765625	161.7939453125	-565.4161987304688	463.5478210449219	239.8424072265625	-531.8510131835938	591.1574096679688	186.3364868164062	-631.0225219726562	47.77515411376953	311.5789489746094	-584.211181640625	248.1271667480469	276.0545654296875	-634.5799560546875	118.2929763793945	511.576904296875	-690.865966796875	85.06243133544922	465.2387084960938	-585.954345703125	80.29730224609375	423.0421752929688	-704.7945556640625	44.54933547973633	295.9734191894531	-836.2846069335938	452.4721069335938	3.405156850814819	-857.0841674804688	704.0263671875	73.79831695556641	-802.8374633789062	63.03778457641602	-161.7514343261719	-826.4421997070312	332.6249694824219	-16.7470531463623	-799.591796875	43.80264663696289	34.37047958374023	-842.7100830078125	39.29174041748047	-72.10788726806641	-743.7489013671875	71.85816955566406	-197.2880249023438	-743.4266967773438	40.82316207885742	-6.434483528137207	
523	5.22	-731.5859985351562	963.5526733398438	-40.18199920654297	-602.8170776367188	953.192626953125	-36.76808166503906	-675.0330810546875	1020.083190917969	-42.78644561767578	-639.1743774414062	1197.97998046875	193.8274688720703	-670.7636108398438	1139.4912109375	-51.91830825805664	-636.6177368164062	1384.453002929688	-1.06828498840332	-629.3717651367188	1323.780517578125	151.9523315429688	-719.677490234375	1251.825317382812	-46.42496109008789	-541.345703125	1343.723266601562	-25.67716789245605	-474.3717956542969	1351.331176757812	52.37629699707031	-421.247802734375	1233.223266601562	8.04316520690918	-422.0766296386719	1031.73388671875	-16.6354866027832	-495.4062805175781	1030.640991210938	-59.9164924621582	-450.2263488769531	774.3361206054688	40.64453506469727	-409.5682983398438	771.7258911132812	-16.26066589355469	-416.8501586914062	926.2230224609375	-24.91129112243652	-470.2001342773438	615.0702514648438	11.56057929992676	-422.2611389160156	703.5318603515625	-31.77481651306152	-438.018310546875	694.3865966796875	29.376708984375	-790.6953125	1381.564086914062	69.84163665771484	-862.1904296875	1326.650390625	67.67606353759766	-966.89208984375	1088.609375	135.7061309814453	-891.6394653320312	1046.344848632812	94.50703430175781	-964.8494262695312	899.1372680664062	307.92236328125	-1036.96435546875	892.390869140625	282.2833557128906	-990.4320068359375	1034.727416992188	178.8851318359375	-1008.07080078125	745.7959594726562	374.2521667480469	-999.2749633789062	818.3418579101562	368.1121520996094	-1051.686889648438	817.54296875	320.6432800292969	-702.0498657226562	1596.003051757812	97.94916534423828	-543.4241943359375	1568.916870117188	229.1830902099609	-640.8734741210938	1577.640014648438	247.5697937011719	-568.5645141601562	1585.991577148438	44.18541717529297	-504.8166198730469	894.9930419921875	55.90656280517578	-846.8487548828125	911.9664306640625	31.23431968688965	-810.8656005859375	936.3794555664062	139.3858032226562	-572.5256958007812	925.22509765625	170.2977600097656	-565.2484741210938	460.892822265625	245.9899291992188	-532.157958984375	587.88671875	192.1292572021484	-627.435302734375	48.32041168212891	332.1404113769531	-582.0231323242188	247.7157135009766	288.4169311523438	-628.1992797851562	125.3093109130859	529.9566040039062	-684.8464965820312	90.26189422607422	485.4423217773438	-580.68310546875	84.54958343505859	441.9293823242188	-701.3715209960938	44.35769653320312	317.6633911132812	-836.5174560546875	452.0622253417969	7.623221874237061	-857.345458984375	703.0447998046875	79.93419647216797	-802.4368286132812	64.21134185791016	-161.3053283691406	-826.5316162109375	332.3288879394531	-13.66849136352539	-799.6077880859375	43.80730819702148	34.48551940917969	-842.5621948242188	39.67219924926758	-71.89451599121094	-743.3799438476562	73.44924163818359	-196.7627258300781	-743.37646484375	40.82865524291992	-6.199220657348633	
524	5.23	-730.9172973632812	962.4691162109375	-32.03436279296875	-602.1691284179688	951.6925048828125	-28.14279747009277	-674.5205688476562	1018.335510253906	-34.38880920410156	-638.4808959960938	1196.693969726562	201.5792236328125	-670.4513549804688	1137.742553710938	-44.11820983886719	-636.1817016601562	1382.812377929688	6.223100185394287	-628.5025634765625	1322.478149414062	159.4053039550781	-719.3314819335938	1250.1123046875	-38.66978454589844	-541.0038452148438	1341.8671875	-18.54438400268555	-473.7579956054688	1349.544311523438	59.30440139770508	-421.1902160644531	1231.180786132812	14.79374122619629	-423.0177612304688	1029.720581054688	-10.04887580871582	-496.6041259765625	1028.933227539062	-52.82212066650391	-452.1504516601562	772.1053466796875	46.43564224243164	-411.6393127441406	769.6051635742188	-10.58745384216309	-418.2462463378906	924.2566528320312	-18.56564521789551	-473.3654174804688	613.1284790039062	16.3700122833252	-424.827392578125	701.6071166992188	-26.49860191345215	-440.6660461425781	692.06884765625	34.64738082885742	-790.1089477539062	1380.049438476562	77.56742095947266	-861.5441284179688	1324.904418945312	75.87613677978516	-965.1027221679688	1086.891479492188	146.0307159423828	-890.0718383789062	1044.58740234375	104.4652481079102	-960.54296875	898.9201049804688	319.7557373046875	-1032.859741210938	891.56005859375	294.9670715332031	-988.063720703125	1033.251098632812	189.8415374755859	-1002.302307128906	745.9428100585938	387.8990783691406	-993.96044921875	818.524169921875	381.101806640625	-1046.967041015625	817.290283203125	334.1392517089844	-701.444580078125	1594.702758789062	105.3942794799805	-541.7931518554688	1567.894897460938	235.4905853271484	-639.146484375	1576.427124023438	254.5953674316406	-568.3860473632812	1584.774291992188	50.68176651000977	-504.6015930175781	892.928955078125	64.84503173828125	-846.5744018554688	911.1018676757812	38.85373687744141	-811.0289916992188	935.2178344726562	147.2155456542969	-572.7324829101562	923.2991943359375	178.8661956787109	-564.8180541992188	458.5436706542969	252.8410339355469	-532.351318359375	584.9053344726562	198.6123809814453	-623.7785034179688	48.96207046508789	350.6068725585938	-579.6788330078125	247.3766632080078	300.1094970703125	-621.7440795898438	131.1455535888672	546.5115356445312	-678.7588500976562	94.72639465332031	503.6222839355469	-575.3431396484375	88.15237426757812	458.7996215820312	-697.8754272460938	44.47879791259766	337.2659606933594	-836.7676391601562	451.7441711425781	11.89480495452881	-857.5598754882812	702.11474609375	86.14982604980469	-802.1383666992188	65.490966796875	-160.8237152099609	-826.661376953125	332.1302490234375	-10.5390043258667	-799.6320190429688	43.80936050415039	34.60965347290039	-842.4763793945312	40.07402801513672	-71.66256713867188	-743.1155395507812	75.18447113037109	-196.2005157470703	-743.3383178710938	40.86160278320312	-5.961866855621338	
525	5.24	-730.1461181640625	961.3980102539062	-23.77623176574707	-601.4253540039062	950.1682739257812	-19.47299575805664	-673.85302734375	1016.613525390625	-25.89666175842285	-637.6472778320312	1195.402709960938	209.4150238037109	-669.9465942382812	1135.998657226562	-36.13021469116211	-635.5773315429688	1381.185668945312	13.61870765686035	-627.4987182617188	1321.171752929688	166.9797973632812	-718.7964477539062	1248.404541015625	-30.79802703857422	-540.48291015625	1340.013671875	-11.28686904907227	-472.9917297363281	1347.767944335938	66.37330627441406	-420.9483642578125	1229.135131835938	21.7045955657959	-423.7774658203125	1027.6826171875	-3.250420093536377	-497.5689392089844	1027.21435546875	-45.5528678894043	-453.9338684082031	769.8884887695312	52.53106307983398	-413.5175476074219	767.4907836914062	-4.603049755096436	-419.451904296875	922.2852783203125	-11.98093032836914	-476.2911376953125	611.2411499023438	21.63701248168945	-427.1780090332031	699.6953125	-20.87596702575684	-443.0847473144531	689.823486328125	40.28958511352539	-789.3729248046875	1378.5458984375	85.38346099853516	-860.7340698242188	1323.158935546875	84.13022613525391	-963.0958251953125	1085.105834960938	156.1742706298828	-888.3125610351562	1042.8095703125	114.1988754272461	-955.9362182617188	898.5374145507812	331.2288818359375	-1028.447143554688	890.6065673828125	307.3218994140625	-985.4668579101562	1031.685668945312	200.5872955322266	-996.2006225585938	745.9495239257812	401.1517944335938	-988.3281860351562	818.5579223632812	393.7074890136719	-1041.91455078125	816.8521728515625	347.3029479980469	-700.6751708984375	1593.456176757812	112.8823089599609	-539.9629516601562	1566.94140625	241.7759857177734	-637.2839965820312	1575.263305664062	261.6681823730469	-568.046630859375	1583.583862304688	57.23592758178711	-504.3585205078125	890.8440551757812	73.72955322265625	-846.151611328125	910.2738647460938	46.62526702880859	-811.076904296875	934.0814208984375	155.1899566650391	-572.8267822265625	921.3583374023438	187.4870147705078	-564.1341552734375	456.5491027832031	260.3732299804688	-532.4006958007812	582.3377685546875	205.8688049316406	-620.160400390625	49.45238494873047	366.81103515625	-577.223876953125	246.9951019287109	311.1034240722656	-615.2342529296875	135.4615020751953	561.1891479492188	-672.6693725585938	98.13280487060547	519.7127075195312	-570.0075073242188	90.79351043701172	473.5298767089844	-694.4273681640625	44.67316818237305	354.6242065429688	-837.0255737304688	451.5238037109375	16.25280570983887	-857.7289428710938	701.2444458007812	92.46461486816406	-801.9790649414062	66.88955688476562	-160.2985992431641	-826.8341674804688	332.0348815917969	-7.335659027099609	-799.6646728515625	43.80714797973633	34.74337768554688	-842.4614868164062	40.49524688720703	-71.4022216796875	-742.9849243164062	77.07527923583984	-195.5963134765625	-743.3143310546875	40.92775344848633	-5.725209712982178	
